<svg width="133" height="132" viewBox="0 0 133 132" fill="none" xmlns="http://www.w3.org/2000/svg">
<path d="M126.636 18.5625V84.5625C126.636 85.6565 126.201 86.7057 125.428 87.4793C124.654 88.2529 123.605 88.6875 122.511 88.6875H31.7609V18.5625H126.636Z" fill="#5771E5"/>
<path d="M27.6359 80.4375H37.9484V90.75H27.6359V80.4375Z" fill="#FFBFA1"/>
<path d="M73.0109 103.123V115.5H68.8859L57.5421 104.156L52.3859 98.9976V125.815L7.01086 125.813V101.98C7.01055 99.9638 7.4075 97.9668 8.17904 96.1035C8.95057 94.2402 10.0816 92.5471 11.5075 91.121C12.9334 89.6949 14.6262 88.5636 16.4894 87.7917C18.3525 87.0199 20.3495 86.6226 22.3662 86.6226H53.0923C55.2808 86.6232 57.3794 87.4931 58.9266 89.0409L65.7921 95.9064L73.0109 103.123Z" fill="#FFCEB6"/>
<path d="M65.7921 95.9064L57.5421 104.156L52.3859 98.9976V125.815L7.01086 125.813V101.98C7.01055 99.9638 7.4075 97.9668 8.17904 96.1035C8.95057 94.2402 10.0816 92.5471 11.5075 91.121C12.9334 89.6949 14.6262 88.5636 16.4894 87.7917C18.3525 87.0199 20.3495 86.6226 22.3662 86.6226H53.0923C55.2808 86.6232 57.3794 87.4931 58.9266 89.0409L65.7921 95.9064Z" fill="#ED6445"/>
<path d="M31.7609 18.5625H126.636V10.3125C126.636 9.21848 126.201 8.16927 125.428 7.39568C124.654 6.6221 123.605 6.1875 122.511 6.1875H35.8859C34.7918 6.1875 33.7426 6.6221 32.969 7.39568C32.1955 8.16927 31.7609 9.21848 31.7609 10.3125V18.5625Z" fill="#89A8F5"/>
<path d="M31.7601 94.8737L29.6976 90.7487L33.8234 88.6875L37.9476 90.7487L35.8851 94.8737H31.7601Z" fill="#F5A431"/>
<path d="M35.8851 94.8735L37.9476 115.499H29.6976L31.7601 94.8735H35.8851Z" fill="#F7C04A"/>
<path d="M13.1069 111.705C12.4075 110.807 11.1119 110.645 10.2132 111.344C9.31445 112.044 9.15285 113.339 9.85225 114.238L11.3303 116.137C12.0297 117.036 13.3252 117.198 14.224 116.498C15.1227 115.799 15.2843 114.503 14.5849 113.605L13.1069 111.705Z" fill="#DE402F"/>
<path d="M20.2552 101.245C19.5137 100.381 18.2117 100.281 17.3471 101.023C16.4825 101.764 16.3828 103.066 17.1244 103.931L20.1535 107.462C20.895 108.327 22.197 108.427 23.0616 107.685C23.9262 106.944 24.0259 105.641 23.2843 104.777L20.2552 101.245Z" fill="#DE402F"/>
<path d="M37.9484 24.75H44.1359V28.875H37.9484V24.75Z" fill="#3D44D1"/>
<path d="M52.3859 24.75H56.5109V28.875H52.3859V24.75Z" fill="#3D44D1"/>
<path d="M60.6359 24.75H75.0734V28.875H60.6359V24.75Z" fill="#3D44D1"/>
<path d="M56.5109 33H66.8234V37.125H56.5109V33Z" fill="#3D44D1"/>
<path d="M70.9484 33H81.2609V37.125H70.9484V33Z" fill="#3D44D1"/>
<path d="M50.3234 41.25H75.0734V45.375H50.3234V41.25Z" fill="#3D44D1"/>
<path d="M37.9484 53.625H48.2609V57.75H37.9484V53.625Z" fill="#3D44D1"/>
<path d="M62.6984 53.625H75.0734V57.75H62.6984V53.625Z" fill="#3D44D1"/>
<path d="M54.4484 53.625H58.5734V57.75H54.4484V53.625Z" fill="#3D44D1"/>
<path d="M50.3234 61.875H66.8234V66H50.3234V61.875Z" fill="#3D44D1"/>
<path d="M70.9484 61.875H83.3234V66H70.9484V61.875Z" fill="#3D44D1"/>
<path d="M58.5734 70.125H62.6984V74.25H58.5734V70.125Z" fill="#3D44D1"/>
<path d="M66.8234 70.125H81.2609V74.25H66.8234V70.125Z" fill="#3D44D1"/>
<path d="M58.5734 78.375H70.9484V82.5H58.5734V78.375Z" fill="#3D44D1"/>
<path d="M92.1775 57.146L83.9275 48.896C83.7359 48.7045 83.584 48.4771 83.4804 48.2268C83.3767 47.9766 83.3233 47.7084 83.3233 47.4375C83.3233 47.1666 83.3767 46.8984 83.4804 46.6482C83.584 46.3979 83.7359 46.1705 83.9275 45.979L92.1775 37.729L95.0942 40.646L88.3028 47.4375L95.0942 54.229L92.1775 57.146Z" fill="#A2C1FA"/>
<path d="M111.594 57.146L108.677 54.229L115.469 47.4375L108.677 40.646L111.594 37.729L119.844 45.979C120.036 46.1705 120.188 46.3979 120.291 46.6482C120.395 46.8984 120.448 47.1666 120.448 47.4375C120.448 47.7084 120.395 47.9766 120.291 48.2268C120.188 48.4771 120.036 48.7045 119.844 48.896L111.594 57.146Z" fill="#A2C1FA"/>
<path d="M95.7913 63.4692L104.057 30.4742L108.058 31.4766L99.7925 64.4716L95.7913 63.4692Z" fill="#A2C1FA"/>
<path d="M44.1346 96.9363C43.9431 97.1278 43.7158 97.2796 43.4657 97.3833C43.2155 97.4869 42.9474 97.5402 42.6767 97.5402C42.4059 97.5402 42.1378 97.4869 41.8876 97.3833C41.6375 97.2796 41.4102 97.1278 41.2187 96.9363L33.8234 89.541L26.4254 96.9368C26.0387 97.3233 25.5143 97.5405 24.9676 97.5404C24.4208 97.5404 23.8964 97.3232 23.5098 96.9365L23.5096 96.9363C23.3181 96.7449 23.1662 96.5176 23.0626 96.2674C22.959 96.0173 22.9057 95.7491 22.9057 95.4784C22.9057 95.2076 22.959 94.9395 23.0626 94.6894C23.1662 94.4392 23.3181 94.2119 23.5096 94.0205L30.9075 86.6226H36.7367L44.1346 94.0205C44.5213 94.4071 44.7385 94.9316 44.7385 95.4784C44.7385 96.0252 44.5213 96.5496 44.1346 96.9363Z" fill="#DE402F"/>
<path d="M27.635 72.1875V82.5C27.635 84.141 28.2869 85.7148 29.4472 86.8752C30.6076 88.0356 32.1814 88.6875 33.8225 88.6875H33.8225C34.635 88.6875 35.4396 88.5275 36.1903 88.2165C36.941 87.9056 37.6231 87.4498 38.1977 86.8752C38.7723 86.3007 39.228 85.6186 39.539 84.8678C39.8499 84.1171 40.01 83.3126 40.01 82.5L40.0109 72.1875H27.635Z" fill="#FFCEB6"/>
<path d="M31.7609 74.25L32.365 74.8541C32.8273 75.3165 33.3762 75.6832 33.9804 75.9335C34.5845 76.1837 35.232 76.3125 35.8859 76.3125C37.5269 76.3125 39.1007 75.6606 40.2611 74.5002C41.4215 73.3398 42.0734 71.766 42.0734 70.125V68.0625H31.7777C30.5716 68.0625 29.3961 68.442 28.4177 69.1472C27.4392 69.8524 26.7075 70.8476 26.3261 71.9918C26.0874 72.7078 25.9921 73.4637 26.0456 74.2164C26.0991 74.9692 26.3004 75.704 26.6379 76.379L27.6359 78.375L31.7609 74.25Z" fill="#B36F42"/>
<path d="M46.1984 121.688H64.7609V125.812H46.1984V121.688Z" fill="#CAD8ED"/>
<path d="M23.0426 107.718L29.6975 115.499H48.26L52.1599 112.9C52.8374 112.448 53.6333 112.207 54.4475 112.207C55.2616 112.207 56.0576 112.448 56.7351 112.9L62.6984 116.874V121.687L54.4475 121.686L52.1348 123.999C50.9744 125.159 49.4006 125.811 47.7595 125.811H25.4824C24.2261 125.811 22.9863 125.524 21.8578 124.972C20.7292 124.42 19.7416 123.618 18.9703 122.626L14.2199 116.541L23.0426 107.718H23.0426Z" fill="#FFCEB6"/>
<path d="M87.4484 125.811L97.7609 103.124H66.8226L56.5101 125.811H87.4484Z" fill="#E4E9F2"/>
<path d="M78.1671 117.562C77.5552 117.562 76.9571 117.381 76.4483 117.041C75.9396 116.701 75.543 116.218 75.3089 115.653C75.0747 115.087 75.0134 114.465 75.1328 113.865C75.2522 113.265 75.5468 112.714 75.9795 112.281C76.4122 111.848 76.9634 111.554 77.5635 111.434C78.1637 111.315 78.7857 111.376 79.351 111.61C79.9163 111.845 80.3995 112.241 80.7395 112.75C81.0794 113.259 81.2609 113.857 81.2609 114.469C81.2599 115.289 80.9337 116.075 80.3537 116.655C79.7737 117.235 78.9873 117.562 78.1671 117.562Z" fill="#CAD8ED"/>
<path d="M37.9484 14.4375C39.0875 14.4375 40.0109 13.5141 40.0109 12.375C40.0109 11.2359 39.0875 10.3125 37.9484 10.3125C36.8093 10.3125 35.8859 11.2359 35.8859 12.375C35.8859 13.5141 36.8093 14.4375 37.9484 14.4375Z" fill="#F28868"/>
<path d="M44.1359 14.4375C45.275 14.4375 46.1984 13.5141 46.1984 12.375C46.1984 11.2359 45.275 10.3125 44.1359 10.3125C42.9968 10.3125 42.0734 11.2359 42.0734 12.375C42.0734 13.5141 42.9968 14.4375 44.1359 14.4375Z" fill="#F7C04A"/>
<path d="M50.3234 14.4375C51.4625 14.4375 52.3859 13.5141 52.3859 12.375C52.3859 11.2359 51.4625 10.3125 50.3234 10.3125C49.1843 10.3125 48.2609 11.2359 48.2609 12.375C48.2609 13.5141 49.1843 14.4375 50.3234 14.4375Z" fill="#90D4B1"/>
</svg>
