<svg width="126" height="125" viewBox="0 0 126 125" fill="none" xmlns="http://www.w3.org/2000/svg">
<g clip-path="url(#clip0)">
<path d="M91.9821 96.3037H80.0812V28.6968H91.9821C93.0084 28.6968 93.8402 27.865 93.8402 26.8386C93.8402 25.8123 93.0084 24.9805 91.9821 24.9805H80.0812V15.4866C80.0812 14.4602 79.2494 13.6284 78.2228 13.6284C77.1962 13.6284 76.3646 14.4602 76.3646 15.4866V24.9802H18.2992V15.4866C18.2992 14.4602 17.4672 13.6284 16.441 13.6284C15.4149 13.6284 14.5829 14.4602 14.5829 15.4866V24.9802H2.68152C1.65515 24.9802 0.823364 25.812 0.823364 26.8384C0.823364 27.8647 1.6554 28.6965 2.68152 28.6965H14.5826V96.3035H2.68152C1.65515 96.3035 0.823364 97.1353 0.823364 98.1619C0.823364 99.1885 1.6554 100.02 2.68152 100.02H14.5826V109.514C14.5826 110.54 15.4147 111.372 16.4408 111.372C17.4669 111.372 18.299 110.54 18.299 109.514V100.02H76.3641V109.514C76.3641 110.54 77.1959 111.372 78.2223 111.372C79.2487 111.372 80.0807 110.54 80.0807 109.514V100.02H91.9816C93.0079 100.02 93.8397 99.1885 93.8397 98.1619C93.8397 97.1353 93.0084 96.3037 91.9821 96.3037ZM18.2992 96.3037V28.6968H76.3644V96.3037H18.2992Z" fill="#B3DAFE"/>
<path d="M76.3128 41.4313L51.1146 26.8701C48.7901 25.527 45.9015 25.5261 43.576 26.8671L18.3668 41.4094C16.0414 42.7507 14.5905 45.2516 14.5895 47.9362V77.039C14.5885 79.7233 16.0262 82.2255 18.3507 83.569L43.5487 98.1301C44.712 98.8019 46.0162 99.1381 47.3207 99.1381C48.6229 99.1381 49.9254 98.8029 51.0873 98.133L76.2967 83.591C78.6222 82.2494 80.0731 79.7485 80.0741 77.0641V47.9616C80.0751 45.277 78.6373 42.7748 76.3128 41.4313ZM64.4537 54.8278V70.1855C64.4532 71.5468 63.7174 72.8149 62.5384 73.4948L49.2357 81.1684C48.0565 81.8488 46.5919 81.8478 45.4137 81.1669L32.1168 73.4831C30.9381 72.8019 30.2093 71.5334 30.2101 70.1723V54.8146C30.2106 53.4536 30.9464 52.1855 32.1254 51.5056L45.4281 43.832C46.0172 43.4921 46.6776 43.3222 47.338 43.3222C47.9991 43.3222 48.6605 43.4929 49.2501 43.8334L62.5472 51.5173C63.7255 52.1982 64.4542 53.4667 64.4537 54.8278Z" fill="#01C0FA"/>
<path d="M76.3129 41.4315L51.1146 26.8702C49.069 25.6883 46.587 25.5467 44.4359 26.4437C44.7308 26.5667 45.0199 26.7081 45.3002 26.8702L70.4984 41.4315C72.8229 42.7747 74.2606 45.2772 74.2594 47.9617V77.0643C74.2584 79.7486 72.8077 82.2498 70.4821 83.5911L45.2726 98.1331C44.9935 98.294 44.7062 98.4344 44.413 98.5567C45.3412 98.9437 46.3307 99.1382 47.3204 99.1382C48.6227 99.1382 49.9252 98.803 51.087 98.1331L76.2965 83.5911C78.622 82.2496 80.0729 79.7486 80.0739 77.0643V47.9617C80.0751 45.2772 78.6373 42.775 76.3129 41.4315Z" fill="#0290CF"/>
<path d="M122.89 30.489C126.801 34.4006 126.801 40.7424 122.89 44.654L119.915 47.6286L105.75 33.4636L108.725 30.489C112.636 26.5776 118.978 26.5776 122.89 30.489Z" fill="#FE7AB6"/>
<path d="M122.89 30.489C122.506 30.1055 122.099 29.761 121.673 29.4526C123.583 32.4419 122.53 37.2383 119.002 40.7661L116.027 43.7407L119.915 47.6284L122.89 44.6538C126.801 40.7424 126.801 34.4006 122.89 30.489Z" fill="#FE3D97"/>
<path d="M101.129 38.085L68.5971 70.6167L62.5524 87.5813C61.8336 89.5984 63.7804 91.5452 65.7975 90.8264L82.7621 84.7817L115.294 52.25L101.129 38.085Z" fill="#FFDFCF"/>
<path d="M111.059 48.0933L78.5275 80.625L63.1652 88.272C62.87 88.4189 62.5885 88.5005 62.3246 88.5359C62.3832 90.1543 64.0262 91.4299 65.7199 90.8267L82.6845 84.782L115.216 52.2502L111.059 48.0933Z" fill="#FFCEBF"/>
<path d="M68.597 70.6165C74.3456 69.5896 76.7064 71.9504 75.6796 77.699C81.4281 76.6721 83.7889 79.033 82.7621 84.7815L115.294 52.2498L101.129 38.0847L68.597 70.6165Z" fill="#FE9738"/>
<path d="M82.7772 84.6887L115.216 52.25L111.059 48.0933L81.0199 78.1326C82.7728 79.1506 83.358 81.3367 82.7772 84.6887Z" fill="#FE7701"/>
<path d="M64.6564 81.6763L62.5524 87.5811C61.8336 89.5981 63.7804 91.5449 65.7975 90.8262L71.7023 88.7222L64.6564 81.6763Z" fill="#596C76"/>
<path d="M62.4015 88.5225C62.4418 89.8355 63.5253 90.9251 64.8358 90.9763C65.1234 90.9785 65.4205 90.9334 65.7196 90.8267L71.6818 88.7022L68.5641 85.5845L63.1649 88.272C62.8981 88.405 62.6432 88.4824 62.4015 88.5225Z" fill="#465A61"/>
<path d="M101.129 38.085L68.597 70.6167C74.3456 69.5898 76.7064 71.9507 75.6796 77.6992L108.211 45.1675L101.129 38.085Z" fill="#FDB97E"/>
<path d="M122.129 45.5291L107.85 31.2498C105.978 29.378 102.943 29.378 101.072 31.2498C99.1998 33.1216 99.1998 36.1563 101.072 38.0281L115.351 52.3074C117.223 54.1793 120.257 54.1793 122.129 52.3074C124.001 50.4356 124.001 47.4007 122.129 45.5291Z" fill="#D8ECFE"/>
<path d="M122.129 45.5288L118.088 41.4878C119.532 42.9316 119.185 45.6191 117.313 47.491C115.441 49.3628 112.754 49.7097 111.31 48.2661L115.351 52.3071C117.223 54.1789 120.257 54.1789 122.129 52.3071C124.001 50.4353 124.001 47.4004 122.129 45.5288Z" fill="#B3DAFE"/>
</g>
<defs>
<clipPath id="clip0">
<rect width="125" height="125" fill="white" transform="translate(0.823364)"/>
</clipPath>
</defs>
</svg>
