<svg width="214" height="58" viewBox="0 0 214 58" fill="none" xmlns="http://www.w3.org/2000/svg">
<path d="M10.206 7.364V9.83H6.858V20H3.78V9.83H0.432V7.364H10.206ZM28.9948 20L26.3668 15.23H25.6288V20H22.5508V7.364H27.7168C28.7128 7.364 29.5588 7.538 30.2548 7.886C30.9628 8.234 31.4908 8.714 31.8388 9.326C32.1868 9.926 32.3608 10.598 32.3608 11.342C32.3608 12.182 32.1208 12.932 31.6408 13.592C31.1728 14.252 30.4768 14.72 29.5528 14.996L32.4688 20H28.9948ZM25.6288 13.052H27.5368C28.1008 13.052 28.5208 12.914 28.7968 12.638C29.0848 12.362 29.2288 11.972 29.2288 11.468C29.2288 10.988 29.0848 10.61 28.7968 10.334C28.5208 10.058 28.1008 9.92 27.5368 9.92H25.6288V13.052ZM52.959 17.768H48.243L47.487 20H44.265L48.837 7.364H52.401L56.973 20H53.715L52.959 17.768ZM52.167 15.392L50.601 10.766L49.053 15.392H52.167ZM80.4684 20H77.3904L72.2424 12.206V20H69.1644V7.364H72.2424L77.3904 15.194V7.364H80.4684V20ZM98.0716 20.126C97.1476 20.126 96.3196 19.976 95.5876 19.676C94.8556 19.376 94.2676 18.932 93.8236 18.344C93.3916 17.756 93.1636 17.048 93.1396 16.22H96.4156C96.4636 16.688 96.6256 17.048 96.9016 17.3C97.1776 17.54 97.5376 17.66 97.9816 17.66C98.4376 17.66 98.7976 17.558 99.0616 17.354C99.3256 17.138 99.4576 16.844 99.4576 16.472C99.4576 16.16 99.3496 15.902 99.1336 15.698C98.9296 15.494 98.6716 15.326 98.3596 15.194C98.0596 15.062 97.6276 14.912 97.0636 14.744C96.2476 14.492 95.5816 14.24 95.0656 13.988C94.5496 13.736 94.1056 13.364 93.7336 12.872C93.3616 12.38 93.1756 11.738 93.1756 10.946C93.1756 9.77 93.6016 8.852 94.4536 8.192C95.3056 7.52 96.4156 7.184 97.7836 7.184C99.1756 7.184 100.298 7.52 101.15 8.192C102.002 8.852 102.458 9.776 102.518 10.964H99.1876C99.1636 10.556 99.0136 10.238 98.7376 10.01C98.4616 9.77 98.1076 9.65 97.6756 9.65C97.3036 9.65 97.0036 9.752 96.7756 9.956C96.5476 10.148 96.4336 10.43 96.4336 10.802C96.4336 11.21 96.6256 11.528 97.0096 11.756C97.3936 11.984 97.9936 12.23 98.8096 12.494C99.6256 12.77 100.286 13.034 100.79 13.286C101.306 13.538 101.75 13.904 102.122 14.384C102.494 14.864 102.68 15.482 102.68 16.238C102.68 16.958 102.494 17.612 102.122 18.2C101.762 18.788 101.234 19.256 100.538 19.604C99.8416 19.952 99.0196 20.126 98.0716 20.126ZM114.852 13.664C114.852 12.416 115.122 11.306 115.662 10.334C116.202 9.35 116.952 8.588 117.912 8.048C118.884 7.496 119.982 7.22 121.206 7.22C122.706 7.22 123.99 7.616 125.058 8.408C126.126 9.2 126.84 10.28 127.2 11.648H123.816C123.564 11.12 123.204 10.718 122.736 10.442C122.28 10.166 121.758 10.028 121.17 10.028C120.222 10.028 119.454 10.358 118.866 11.018C118.278 11.678 117.984 12.56 117.984 13.664C117.984 14.768 118.278 15.65 118.866 16.31C119.454 16.97 120.222 17.3 121.17 17.3C121.758 17.3 122.28 17.162 122.736 16.886C123.204 16.61 123.564 16.208 123.816 15.68H127.2C126.84 17.048 126.126 18.128 125.058 18.92C123.99 19.7 122.706 20.09 121.206 20.09C119.982 20.09 118.884 19.82 117.912 19.28C116.952 18.728 116.202 17.966 115.662 16.994C115.122 16.022 114.852 14.912 114.852 13.664ZM142.963 9.83V12.386H147.085V14.762H142.963V17.534H147.625V20H139.885V7.364H147.625V9.83H142.963ZM171.727 20H168.649L163.501 12.206V20H160.423V7.364H163.501L168.649 15.194V7.364H171.727V20ZM189.492 7.364C190.824 7.364 191.988 7.628 192.984 8.156C193.98 8.684 194.748 9.428 195.288 10.388C195.84 11.336 196.116 12.434 196.116 13.682C196.116 14.918 195.84 16.016 195.288 16.976C194.748 17.936 193.974 18.68 192.966 19.208C191.97 19.736 190.812 20 189.492 20H184.758V7.364H189.492ZM189.294 17.336C190.458 17.336 191.364 17.018 192.012 16.382C192.66 15.746 192.984 14.846 192.984 13.682C192.984 12.518 192.66 11.612 192.012 10.964C191.364 10.316 190.458 9.992 189.294 9.992H187.836V17.336H189.294Z" fill="white"/>
<rect y="38" width="197" height="7" fill="url(#paint0_linear)"/>
<defs>
<linearGradient id="paint0_linear" x1="-0.999999" y1="42.5001" x2="449.5" y2="41.0001" gradientUnits="userSpaceOnUse">
<stop stop-color="white"/>
<stop offset="1" stop-color="white" stop-opacity="0"/>
</linearGradient>
</defs>
</svg>
