<svg width="105" height="104" viewBox="0 0 105 104" fill="none" xmlns="http://www.w3.org/2000/svg">
<g clip-path="url(#clip0)">
<path d="M42.014 41.1929C36.0543 35.2333 36.0543 25.5363 42.014 19.5765C47.9736 13.6167 57.6705 13.6169 63.6304 19.5765C69.59 25.5361 69.59 35.233 63.6304 41.1929C57.6705 47.1525 47.9736 47.1525 42.014 41.1929Z" fill="#FFF0BF"/>
<path d="M32.301 31.4802C26.3413 25.5206 26.3413 15.8237 32.301 9.86385C38.2606 3.90401 47.9575 3.90421 53.9174 9.86385C59.8772 15.8235 59.877 25.5204 53.9174 31.4802C47.9577 37.4401 38.2606 37.4399 32.301 31.4802Z" fill="#FFE278"/>
<path d="M26.9149 26.0938C20.9553 20.1341 20.9553 10.4372 26.9149 4.47738C32.8746 -1.48247 42.5715 -1.48227 48.5313 4.47738C54.4912 10.437 54.491 20.1339 48.5313 26.0938C42.5717 32.0536 32.8746 32.0536 26.9149 26.0938Z" fill="#FFCC4A"/>
<path d="M78.7293 77.9084C72.7697 71.9488 72.7697 62.2518 78.7293 56.292C84.689 50.3324 94.3859 50.3324 100.346 56.292C106.305 62.2516 106.305 71.9485 100.346 77.9084C94.3861 83.868 84.689 83.868 78.7293 77.9084Z" fill="#FFB54C"/>
<path d="M52.8234 52L13.8966 65.0732L0.823364 104L104.823 104L52.8234 52Z" fill="#F71E78"/>
<path d="M0.823364 0V104L52.8234 52L0.823364 0Z" fill="#FF4F75"/>
</g>
<defs>
<clipPath id="clip0">
<rect width="104" height="104" fill="white" transform="translate(0.823364)"/>
</clipPath>
</defs>
</svg>
