<svg width="129" height="237" viewBox="0 0 129 237" fill="none" xmlns="http://www.w3.org/2000/svg">
<g filter="url(#filter0_b)">
<rect x="0.959351" y="0.426514" width="127.389" height="236.074" rx="11" fill="black" fill-opacity="0.3"/>
<rect x="1.45935" y="0.926514" width="126.389" height="235.074" rx="10.5" stroke="white" stroke-opacity="0.1"/>
</g>
<rect x="19.6587" y="172.815" width="87.6531" height="2.19603" fill="white" fill-opacity="0.3"/>
<rect x="20.1587" y="173.315" width="86.6531" height="1.19603" stroke="white" stroke-opacity="0.1"/>
<rect x="19.6587" y="183.795" width="75.966" height="2.19603" fill="white" fill-opacity="0.3"/>
<rect x="20.1587" y="184.295" width="74.966" height="1.19603" stroke="white" stroke-opacity="0.1"/>
<rect x="19.6587" y="195.873" width="87.6531" height="2.19603" fill="white" fill-opacity="0.3"/>
<rect x="20.1587" y="196.373" width="86.6531" height="1.19603" stroke="white" stroke-opacity="0.1"/>
<rect x="19.6587" y="206.854" width="47.917" height="2.19603" fill="white" fill-opacity="0.3"/>
<rect x="20.1587" y="207.354" width="46.917" height="1.19603" stroke="white" stroke-opacity="0.1"/>
<rect x="19.6587" y="218.932" width="87.6531" height="2.19603" fill="white" fill-opacity="0.3"/>
<rect x="20.1587" y="219.432" width="86.6531" height="1.19603" stroke="white" stroke-opacity="0.1"/>
<rect x="9.14032" y="41.0531" width="112.196" height="121.88" rx="6" fill="#491EB7"/>
<g clip-path="url(#clip0)">
<path d="M55.5313 104.579C55.3324 104.579 55.1346 104.551 54.9444 104.497L14.074 92.8161C13.5634 92.6696 13.1357 92.3393 12.8847 91.8979C12.6337 91.4564 12.58 90.9398 12.7353 90.4613L23.0352 58.8603C23.1917 58.3821 23.5443 57.9816 24.0158 57.7466C24.4872 57.5116 25.039 57.4613 25.55 57.6068L66.4203 69.2873C66.931 69.4338 67.3587 69.7641 67.6097 70.2055C67.8607 70.647 67.9144 71.1637 67.759 71.6422L57.4592 103.243C57.3326 103.63 57.0771 103.968 56.7301 104.208C56.3832 104.449 55.963 104.579 55.5313 104.579Z" fill="#4382FE"/>
<path d="M61.6168 99.5128H18.8853C18.335 99.5123 17.8074 99.3073 17.4183 98.943C17.0292 98.5786 16.8103 98.0846 16.8097 97.5693V64.5293C16.8103 64.0141 17.0292 63.5201 17.4183 63.1557C17.8074 62.7913 18.335 62.5864 18.8853 62.5858H61.6168C62.167 62.5864 62.6946 62.7913 63.0837 63.1557C63.4728 63.5201 63.6917 64.0141 63.6923 64.5293V97.5693C63.6917 98.0846 63.4728 98.5786 63.0837 98.943C62.6946 99.3073 62.167 99.5123 61.6168 99.5128ZM18.8853 62.8145C18.3997 62.815 17.9342 62.9958 17.5909 63.3173C17.2476 63.6388 17.0545 64.0747 17.0539 64.5293V97.5693C17.0545 98.024 17.2476 98.4599 17.5909 98.7814C17.9342 99.1028 18.3997 99.2837 18.8853 99.2842H61.6168C62.1023 99.2837 62.5678 99.1028 62.9111 98.7814C63.2544 98.4599 63.4476 98.024 63.4481 97.5693V64.5293C63.4476 64.0747 63.2544 63.6388 62.9111 63.3173C62.5678 62.9958 62.1023 62.815 61.6168 62.8145H18.8853Z" fill="#3F3D56"/>
<path d="M40.251 95.6258C40.2186 95.6258 40.1876 95.6138 40.1647 95.5923C40.1418 95.5709 40.1289 95.5418 40.1289 95.5115V73.2181C40.1289 73.1878 40.1418 73.1587 40.1647 73.1372C40.1876 73.1158 40.2186 73.1038 40.251 73.1038C40.2834 73.1038 40.3145 73.1158 40.3374 73.1372C40.3603 73.1587 40.3731 73.1878 40.3731 73.2181V95.5115C40.3731 95.5418 40.3603 95.5709 40.3374 95.5923C40.3145 95.6138 40.2834 95.6258 40.251 95.6258Z" fill="white"/>
<path d="M40.2511 90.2876C40.2235 90.2876 40.1966 90.2789 40.175 90.2627C40.1534 90.2466 40.1382 90.2241 40.132 90.1989C40.1258 90.1737 40.129 90.1472 40.1409 90.1239C40.1529 90.1005 40.1729 90.0817 40.1978 90.0704L53.1394 84.2047C53.1538 84.1981 53.1695 84.1943 53.1855 84.1934C53.2015 84.1924 53.2176 84.1945 53.2328 84.1994C53.2479 84.2043 53.2619 84.212 53.2739 84.222C53.2859 84.232 53.2957 84.2441 53.3027 84.2576C53.3097 84.2712 53.3138 84.2859 53.3147 84.3009C53.3157 84.3159 53.3134 84.3309 53.3081 84.3451C53.3028 84.3593 53.2946 84.3724 53.2839 84.3836C53.2732 84.3948 53.2602 84.404 53.2458 84.4105L40.3042 90.2762C40.2877 90.2837 40.2695 90.2876 40.2511 90.2876Z" fill="white"/>
<path d="M40.2511 84.4219C40.2239 84.4219 40.1975 84.4134 40.176 84.3978C40.1545 84.3821 40.1393 84.3602 40.1326 84.3354C40.126 84.3107 40.1284 84.2846 40.1394 84.2613C40.1504 84.238 40.1694 84.2188 40.1934 84.2068L48.8618 79.8624C48.8903 79.8482 48.9237 79.8452 48.9546 79.854C48.9856 79.8628 49.0115 79.8828 49.0267 79.9095C49.042 79.9361 49.0453 79.9674 49.036 79.9964C49.0267 80.0254 49.0055 80.0497 48.977 80.0641L40.3086 84.4084C40.2909 84.4173 40.2712 84.4219 40.2511 84.4219Z" fill="white"/>
<path d="M40.2511 77.9081C40.224 77.9081 40.1977 77.8997 40.1762 77.8841C40.1548 77.8686 40.1395 77.8468 40.1328 77.8222C40.126 77.7976 40.1282 77.7716 40.139 77.7483C40.1498 77.725 40.1685 77.7057 40.1923 77.6935L45.3201 75.0613C45.3485 75.0468 45.3819 75.0434 45.413 75.0519C45.4441 75.0603 45.4703 75.0801 45.4859 75.1066C45.5014 75.1332 45.5051 75.1645 45.496 75.1936C45.4869 75.2227 45.4659 75.2473 45.4375 75.2619L40.3097 77.894C40.2917 77.9033 40.2716 77.9081 40.2511 77.9081Z" fill="white"/>
<path d="M40.2509 90.2876C40.2325 90.2876 40.2144 90.2837 40.1978 90.2762L27.2563 84.4105C27.2419 84.4039 27.2289 84.3948 27.2183 84.3836C27.2076 84.3724 27.1994 84.3593 27.1942 84.3451C27.1889 84.331 27.1867 84.3159 27.1876 84.301C27.1885 84.286 27.1926 84.2713 27.1996 84.2578C27.2066 84.2443 27.2164 84.2322 27.2283 84.2222C27.2403 84.2122 27.2543 84.2046 27.2694 84.1996C27.2845 84.1947 27.3006 84.1926 27.3166 84.1935C27.3326 84.1944 27.3482 84.1982 27.3627 84.2047L40.3042 90.0704C40.3291 90.0817 40.3491 90.1005 40.3611 90.1239C40.3731 90.1472 40.3762 90.1737 40.37 90.1989C40.3638 90.2241 40.3487 90.2466 40.327 90.2628C40.3054 90.2789 40.2786 90.2876 40.2509 90.2876Z" fill="white"/>
<path d="M40.2509 84.4219C40.2308 84.4219 40.2111 84.4173 40.1934 84.4084L31.525 80.0641C31.4966 80.0497 31.4753 80.0254 31.466 79.9964C31.4567 79.9674 31.46 79.9361 31.4753 79.9095C31.4905 79.8828 31.5165 79.8628 31.5474 79.854C31.5783 79.8452 31.6117 79.8482 31.6402 79.8624L40.3086 84.2068C40.3326 84.2188 40.3516 84.238 40.3627 84.2613C40.3737 84.2846 40.3761 84.3107 40.3694 84.3354C40.3628 84.3602 40.3475 84.3821 40.3261 84.3978C40.3046 84.4134 40.2781 84.4219 40.2509 84.4219Z" fill="white"/>
<path d="M40.2509 77.908C40.2304 77.9081 40.2103 77.9032 40.1923 77.894L35.0645 75.2618C35.0361 75.2473 35.0151 75.2227 35.006 75.1936C34.9969 75.1645 35.0006 75.1332 35.0162 75.1066C35.0317 75.08 35.0579 75.0603 35.089 75.0518C35.1201 75.0433 35.1535 75.0467 35.1819 75.0613L40.3097 77.6935C40.3335 77.7057 40.3522 77.725 40.363 77.7482C40.3738 77.7715 40.376 77.7975 40.3693 77.8221C40.3625 77.8467 40.3472 77.8685 40.3258 77.8841C40.3044 77.8996 40.278 77.9081 40.2509 77.9081V77.908Z" fill="white"/>
<path d="M42.3265 99.4557H38.1755C37.9651 99.4555 37.7634 99.3771 37.6146 99.2378C37.4658 99.0985 37.3821 98.9096 37.3819 98.7126V96.1974C37.3821 96.0004 37.4658 95.8115 37.6146 95.6722C37.7634 95.5329 37.9651 95.4545 38.1755 95.4543H42.3265C42.5369 95.4545 42.7387 95.5329 42.8874 95.6722C43.0362 95.8115 43.1199 96.0004 43.1201 96.1974V98.7126C43.1199 98.9096 43.0362 99.0985 42.8874 99.2378C42.7387 99.3771 42.5369 99.4555 42.3265 99.4557Z" fill="#3F3D56"/>
<path d="M16.9914 71.0706C17.9781 71.0706 18.7779 70.3216 18.7779 69.3977C18.7779 68.4737 17.9781 67.7248 16.9914 67.7248C16.0047 67.7248 15.2049 68.4737 15.2049 69.3977C15.2049 70.3216 16.0047 71.0706 16.9914 71.0706Z" fill="#FF6584"/>
<path d="M65.4054 63.2642C65.4054 63.3283 65.4034 63.3915 65.3975 63.4538C65.3674 63.8397 65.2458 64.2145 65.0415 64.5509C64.8372 64.8873 64.5553 65.1768 64.2164 65.3983C63.8776 65.6197 63.4902 65.7676 63.0825 65.8312C62.6749 65.8948 62.2572 65.8724 61.86 65.7657C61.4627 65.659 61.0959 65.4707 60.7862 65.2144C60.4765 64.9582 60.2317 64.6405 60.0697 64.2845C59.9077 63.9285 59.8326 63.5431 59.8497 63.1565C59.8669 62.7699 59.9759 62.3917 60.1689 62.0495C60.2287 61.9422 60.297 61.8394 60.3734 61.7418C60.7057 61.3102 61.1714 60.9844 61.7077 60.8084C62.244 60.6323 62.825 60.6145 63.3724 60.7574C63.9198 60.9002 64.4072 61.1968 64.769 61.6072C65.1308 62.0175 65.3494 62.5219 65.3955 63.0523C65.4024 63.122 65.4054 63.1926 65.4054 63.2642Z" fill="#3F3D56"/>
<path d="M55.1152 101.025C56.1019 101.025 56.9017 100.276 56.9017 99.3517C56.9017 98.4278 56.1019 97.6788 55.1152 97.6788C54.1286 97.6788 53.3287 98.4278 53.3287 99.3517C53.3287 100.276 54.1286 101.025 55.1152 101.025Z" fill="#E6E6E6"/>
<path d="M41.4412 64.3262C42.4278 64.3262 43.2277 63.5773 43.2277 62.6533C43.2277 61.7294 42.4278 60.9804 41.4412 60.9804C40.4545 60.9804 39.6546 61.7294 39.6546 62.6533C39.6546 63.5773 40.4545 64.3262 41.4412 64.3262Z" fill="#E6E6E6"/>
<path d="M111.796 128.78C111.763 128.78 111.732 128.768 111.709 128.747C111.687 128.725 111.674 128.696 111.674 128.666V126.608C111.674 126.578 111.687 126.549 111.709 126.527C111.732 126.506 111.763 126.494 111.796 126.494C111.828 126.494 111.859 126.506 111.882 126.527C111.905 126.549 111.918 126.578 111.918 126.608V128.666C111.918 128.696 111.905 128.725 111.882 128.747C111.859 128.768 111.828 128.78 111.796 128.78Z" fill="#E6E6E6"/>
<path d="M111.796 126.036C112.133 126.036 112.406 125.78 112.406 125.465C112.406 125.149 112.133 124.893 111.796 124.893C111.459 124.893 111.185 125.149 111.185 125.465C111.185 125.78 111.459 126.036 111.796 126.036Z" fill="#E6E6E6"/>
<path d="M111.674 127.866C111.674 127.866 112.437 126.579 113.505 127.008L111.674 127.866Z" fill="#E6E6E6"/>
<path d="M78.8314 128.78C78.7991 128.78 78.768 128.768 78.7451 128.747C78.7222 128.725 78.7094 128.696 78.7094 128.666V126.608C78.7094 126.578 78.7222 126.549 78.7451 126.527C78.768 126.506 78.7991 126.494 78.8314 126.494C78.8638 126.494 78.8949 126.506 78.9178 126.527C78.9407 126.549 78.9535 126.578 78.9535 126.608V128.666C78.9535 128.696 78.9407 128.725 78.9178 128.747C78.8949 128.768 78.8638 128.78 78.8314 128.78Z" fill="#E6E6E6"/>
<path d="M78.8315 126.036C79.1686 126.036 79.4419 125.78 79.4419 125.465C79.4419 125.149 79.1686 124.893 78.8315 124.893C78.4943 124.893 78.221 125.149 78.221 125.465C78.221 125.78 78.4943 126.036 78.8315 126.036Z" fill="#E6E6E6"/>
<path d="M78.7094 127.866C78.7094 127.866 79.4724 126.579 80.5407 127.008L78.7094 127.866Z" fill="#E6E6E6"/>
<path d="M84.8139 128.78C84.7815 128.78 84.7504 128.768 84.7275 128.747C84.7046 128.725 84.6918 128.696 84.6918 128.666V126.608C84.6918 126.578 84.7046 126.549 84.7275 126.527C84.7504 126.506 84.7815 126.494 84.8139 126.494C84.8462 126.494 84.8773 126.506 84.9002 126.527C84.9231 126.549 84.936 126.578 84.936 126.608V128.666C84.9359 128.696 84.9231 128.725 84.9002 128.747C84.8773 128.768 84.8462 128.78 84.8139 128.78Z" fill="#E6E6E6"/>
<path d="M84.8139 126.036C85.151 126.036 85.4243 125.78 85.4243 125.465C85.4243 125.149 85.151 124.893 84.8139 124.893C84.4767 124.893 84.2034 125.149 84.2034 125.465C84.2034 125.78 84.4767 126.036 84.8139 126.036Z" fill="#E6E6E6"/>
<path d="M84.6918 127.866C84.6918 127.866 85.4548 126.579 86.5231 127.008L84.6918 127.866Z" fill="#E6E6E6"/>
<path d="M88.6351 120.068C88.6438 120.055 88.6531 120.042 88.6631 120.029C88.6878 119.975 88.719 119.923 88.756 119.875L91.8278 115.85L94.3587 112.536H98.6758L98.3705 112.935L97.8272 113.647L96.1437 115.852L92.5359 120.577L95.8799 126.867C96.0167 127.123 95.7835 127.491 95.3622 127.688L93.7494 128.44C93.5893 128.516 93.4127 128.558 93.233 128.561C93.0059 128.561 92.8167 128.482 92.7373 128.332L88.5801 120.513C88.5474 120.44 88.5352 120.361 88.5449 120.283C88.5545 120.206 88.5856 120.131 88.6351 120.068Z" fill="white"/>
<path d="M97.7637 127.972V113.681C97.7634 113.667 97.7642 113.654 97.7664 113.641C97.7738 113.475 97.8327 113.315 97.9361 113.18C98.0394 113.045 98.1826 112.942 98.348 112.882C98.4535 112.843 98.5659 112.823 98.6794 112.823H100.481C100.724 112.823 100.957 112.914 101.129 113.075C101.3 113.235 101.397 113.453 101.397 113.681V127.972C101.397 128.2 101.3 128.418 101.129 128.578C100.957 128.739 100.724 128.83 100.481 128.83H98.6794C98.4366 128.83 98.2039 128.739 98.0322 128.578C97.8605 128.418 97.764 128.2 97.7637 127.972Z" fill="white"/>
<path d="M95.5842 102.409L87.684 114.369C87.5559 114.562 87.3513 114.7 87.1151 114.752C86.8789 114.804 86.6302 114.766 86.4236 114.647L84.8907 113.76C84.6847 113.64 84.5378 113.448 84.4823 113.227C84.4267 113.006 84.467 112.773 84.5942 112.58L92.4945 100.619C92.534 100.558 92.5817 100.503 92.6363 100.455C92.7823 100.322 92.9719 100.238 93.1746 100.217C93.3774 100.197 93.5817 100.24 93.7549 100.341L95.2877 101.228C95.3901 101.287 95.479 101.365 95.5493 101.456C95.6196 101.548 95.6699 101.651 95.6973 101.761C95.7185 101.848 95.7256 101.937 95.7183 102.026C95.7069 102.162 95.6609 102.293 95.5842 102.409Z" fill="white"/>
<path d="M95.9989 102.195L92.9392 108.067C92.8137 108.262 92.611 108.401 92.3756 108.456C92.1402 108.511 91.8912 108.476 91.6832 108.359L88.7573 106.755C88.5499 106.637 88.4007 106.448 88.342 106.227C88.3129 106.116 88.3077 106.001 88.3267 105.889C88.3458 105.776 88.3886 105.668 88.4527 105.571L92.4508 100.358C92.464 100.338 92.4802 100.319 92.499 100.303C92.6446 100.173 92.9722 100.128 93.2351 100.091L93.276 100.085C93.3466 100.075 93.4075 100.066 93.4505 100.056L93.4669 100.052C93.4843 100.049 93.5024 100.045 93.5189 100.043C93.7338 100.009 93.9544 100.049 94.1408 100.154L95.6834 101.026C95.8286 101.109 95.9466 101.228 96.0244 101.37C96.1021 101.512 96.1366 101.671 96.1241 101.83C96.1136 101.959 96.0707 102.084 95.9989 102.195Z" fill="#4382FE"/>
<path d="M97.0395 95.3528C100.648 95.3528 103.574 92.6134 103.574 89.2342C103.574 85.855 100.648 83.1156 97.0395 83.1156C93.4308 83.1156 90.5053 85.855 90.5053 89.2342C90.5053 92.6134 93.4308 95.3528 97.0395 95.3528Z" fill="white"/>
<path d="M97.421 92.5308L97.4278 92.3022C96.9735 92.2904 96.573 92.2637 96.2721 92.0578C96.1868 91.9961 96.1166 91.9179 96.0665 91.8286C96.0163 91.7393 95.9873 91.6409 95.9813 91.5401C95.9761 91.4785 95.986 91.4166 96.0104 91.3592C96.0348 91.3018 96.073 91.2505 96.1221 91.2092C96.3219 91.0512 96.6433 91.1023 96.8776 91.2029L97.0796 91.2897L96.6922 88.6384L96.4503 88.6695L96.7798 90.9247C96.4615 90.8371 96.1665 90.8748 95.9645 91.0346C95.8869 91.098 95.826 91.1773 95.7866 91.2664C95.7472 91.3555 95.7304 91.4519 95.7373 91.5481C95.7445 91.6835 95.7831 91.8159 95.8506 91.9358C95.9181 92.0557 96.0128 92.1604 96.1281 92.2425C96.5147 92.5071 97.0172 92.5202 97.421 92.5308Z" fill="#4382FE"/>
<path d="M95.2539 88.864H93.9388V89.0926H95.2539V88.864Z" fill="#4382FE"/>
<path d="M99.4049 88.864H98.0898V89.0926H99.4049V88.864Z" fill="#4382FE"/>
<path d="M88.5192 118.993C88.0877 118.969 87.7512 118.305 87.7512 117.472L90.3151 103.676C90.3149 103.154 90.3849 102.635 90.5233 102.13L90.5233 102.13C90.5737 101.948 90.6334 101.767 90.7007 101.593C91.1106 100.521 91.8301 99.5757 92.7793 98.8632C92.8865 98.7813 92.9986 98.7019 93.1124 98.6275C93.6652 98.2622 94.2752 97.9793 94.9205 97.7889C94.9027 97.7136 94.8936 97.6367 94.8934 97.5596C94.8938 97.2716 95.0161 96.9956 95.2335 96.7919C95.451 96.5883 95.7458 96.4738 96.0533 96.4735H97.7625C98.07 96.4738 98.3649 96.5883 98.5823 96.7919C98.7997 96.9956 98.922 97.2716 98.9224 97.5596C98.9222 97.6366 98.9131 97.7133 98.8954 97.7885C100.231 98.1846 101.398 98.9687 102.226 100.027C103.054 101.086 103.5 102.364 103.501 103.676L105.943 117.472C105.943 118.326 105.594 118.996 105.149 118.996H88.5447C88.5361 118.996 88.5275 118.995 88.5192 118.993Z" fill="#4382FE"/>
<path d="M98.6335 116.883C98.5576 116.759 98.5163 116.618 98.5134 116.475L98.2566 102.413C98.2544 102.301 98.276 102.189 98.3201 102.084C98.3641 101.979 98.4299 101.884 98.5135 101.803L98.5137 101.803C98.5972 101.721 98.6969 101.657 98.8072 101.612C98.9174 101.567 99.0361 101.543 99.1563 101.541L100.958 101.512C101.185 101.509 101.406 101.584 101.577 101.724C101.748 101.864 101.857 102.058 101.884 102.269C101.887 102.298 101.889 102.326 101.889 102.354L102.147 116.416C102.151 116.644 102.058 116.863 101.889 117.026C101.72 117.19 101.489 117.284 101.247 117.288L99.4452 117.317C99.2809 117.319 99.1189 117.28 98.9761 117.204C98.8333 117.128 98.715 117.017 98.6335 116.883V116.883Z" fill="white"/>
<path d="M97.8761 107.227C97.8079 107.115 97.7676 106.99 97.7584 106.861L97.8353 100.346C97.8166 100.119 97.8947 99.895 98.0524 99.7222C98.2102 99.5493 98.4347 99.4422 98.6767 99.4241L100.473 99.2924C100.692 99.2767 100.909 99.3346 101.086 99.4556C101.105 99.4687 101.123 99.4846 101.141 99.496C101.186 99.531 101.233 99.5638 101.281 99.5943L101.32 99.6202C101.578 99.7914 101.871 99.9854 101.885 100.174L102.966 106.53C102.982 106.712 102.935 106.893 102.832 107.048C102.808 107.086 102.78 107.122 102.75 107.155C102.723 107.185 102.693 107.213 102.662 107.238C102.512 107.364 102.323 107.439 102.123 107.453L98.7425 107.658C98.5694 107.67 98.3961 107.636 98.2427 107.56C98.0893 107.484 97.9622 107.369 97.8761 107.227V107.227Z" fill="#4382FE"/>
<path d="M100.161 86.8726C99.9784 86.4071 99.6279 86.016 99.17 85.7671C98.7121 85.5182 98.1756 85.4271 97.6535 85.5096C97.278 85.583 96.9287 85.7449 96.6388 85.9801C96.0312 86.4394 95.5661 87.1312 94.7726 87.3265C94.0929 87.4938 93.3494 87.2851 92.8043 86.8889C91.4806 85.9269 91.7011 84.0989 92.6849 82.9898C93.8269 81.7023 95.7694 81.3299 97.474 81.4358C99.2536 81.5463 100.968 82.1974 102.403 83.1747C103.854 84.1619 104.995 85.5059 105.818 86.9899C106.235 87.7462 106.576 88.5373 106.836 89.3528C107.13 90.2083 107.314 91.0932 107.386 91.9892C107.439 92.8616 107.31 93.7589 106.812 94.513C106.401 95.1356 105.756 95.6428 104.974 95.7812C104.617 95.8344 104.252 95.8004 103.913 95.6826C103.574 95.5649 103.273 95.3672 103.039 95.1088C102.793 94.8405 102.661 94.4965 102.668 94.1427C102.676 93.7889 102.823 93.4502 103.081 93.1915C103.224 93.0499 103.395 92.9365 103.586 92.8578C103.776 92.7792 103.981 92.7368 104.19 92.7333C104.398 92.7297 104.604 92.7651 104.798 92.8372C104.991 92.9094 105.167 93.0169 105.316 93.1535C105.594 93.4231 105.76 93.8244 105.634 94.194C105.528 94.5049 105.196 94.7915 104.829 94.7588C104.483 94.7279 104.169 94.3929 104.252 94.0637C104.306 93.849 103.953 93.7574 103.898 93.9725C103.856 94.1653 103.88 94.3657 103.967 94.545C104.054 94.7242 104.199 94.873 104.382 94.97C104.562 95.067 104.768 95.1107 104.975 95.0953C105.182 95.0799 105.379 95.0061 105.54 94.8837C106.311 94.3281 106.106 93.285 105.402 92.7665C105.033 92.5009 104.573 92.3685 104.108 92.3936C103.643 92.4187 103.203 92.5995 102.868 92.9031C102.567 93.1821 102.373 93.5473 102.318 93.941C102.264 94.3347 102.351 94.7342 102.566 95.0763C102.782 95.3943 103.077 95.6583 103.426 95.8457C103.775 96.033 104.168 96.1379 104.57 96.1515C105.429 96.1779 106.243 95.7283 106.785 95.1279C108.155 93.6087 107.83 91.4679 107.321 89.6931C106.825 87.9025 105.937 86.228 104.713 84.7761C103.494 83.3458 101.883 82.2516 100.052 81.6097C98.2711 80.9972 96.1872 80.8371 94.3901 81.4861C93.5183 81.8009 92.7259 82.3109 92.1908 83.0371C91.6752 83.7197 91.4391 84.5532 91.5255 85.3853C91.5708 85.7665 91.7049 86.1337 91.9184 86.461C92.1318 86.7883 92.4194 87.0677 92.7608 87.2796C93.3993 87.6788 94.2394 87.8537 94.9819 87.6263C95.863 87.3566 96.3252 86.5748 97.062 86.1095C97.3792 85.9148 97.7529 85.8166 98.1319 85.8285C98.511 85.8404 98.8769 85.9618 99.1794 86.1759C99.4724 86.3699 99.6923 86.6456 99.8076 86.9637C99.8808 87.1725 100.235 87.0831 100.161 86.8726Z" fill="#4382FE"/>
<path d="M104.01 108.029C104.663 108.033 105.356 108.05 105.957 108.319C106.436 108.533 106.879 108.908 106.976 109.417C107.063 109.875 106.845 110.411 106.342 110.559C105.774 110.727 105.199 110.417 104.89 109.978C104.472 109.386 104.444 108.657 104.418 107.97C104.41 107.75 104.043 107.749 104.052 107.97C104.079 108.695 104.118 109.459 104.535 110.095C104.899 110.648 105.546 111.032 106.258 110.928C106.909 110.833 107.319 110.297 107.357 109.703C107.397 109.086 107.007 108.546 106.481 108.206C105.762 107.741 104.856 107.691 104.01 107.686C103.963 107.687 103.918 107.706 103.885 107.738C103.852 107.77 103.833 107.813 103.833 107.857C103.833 107.902 103.852 107.944 103.885 107.976C103.918 108.008 103.963 108.027 104.01 108.029Z" fill="#2F2E41"/>
<path d="M104.103 108.005C104.726 107.638 105.358 107.23 105.752 106.632C106.11 106.087 106.249 105.386 105.923 104.8C105.635 104.281 105.015 103.933 104.388 104.076C103.721 104.229 103.297 104.815 103.216 105.427C103.104 106.266 103.55 107.034 103.979 107.737C104.005 107.774 104.045 107.801 104.091 107.812C104.137 107.822 104.186 107.816 104.227 107.793C104.268 107.771 104.298 107.734 104.311 107.691C104.324 107.649 104.318 107.603 104.296 107.564C103.97 107.03 103.619 106.468 103.57 105.841C103.528 105.299 103.732 104.727 104.282 104.475C104.762 104.254 105.287 104.481 105.554 104.886C105.864 105.356 105.756 105.939 105.474 106.398C105.118 106.977 104.508 107.361 103.918 107.709C103.719 107.826 103.902 108.123 104.103 108.005Z" fill="#2F2E41"/>
<path d="M120.046 128.894H73.5292C73.4968 128.894 73.4658 128.882 73.4429 128.861C73.42 128.84 73.4071 128.81 73.4071 128.78C73.4071 128.75 73.42 128.721 73.4429 128.699C73.4658 128.678 73.4968 128.666 73.5292 128.666H120.046C120.078 128.666 120.109 128.678 120.132 128.699C120.155 128.721 120.168 128.75 120.168 128.78C120.168 128.81 120.155 128.84 120.132 128.861C120.109 128.882 120.078 128.894 120.046 128.894Z" fill="#CCCCCC"/>
</g>
<rect x="9.14032" y="22.3868" width="61.9415" height="4.39207" rx="2.19603" fill="white" fill-opacity="0.3"/>
<defs>
<filter id="filter0_b" x="-29.0406" y="-29.5735" width="187.389" height="296.074" filterUnits="userSpaceOnUse" color-interpolation-filters="sRGB">
<feFlood flood-opacity="0" result="BackgroundImageFix"/>
<feGaussianBlur in="BackgroundImage" stdDeviation="15"/>
<feComposite in2="SourceAlpha" operator="in" result="effect1_backgroundBlur"/>
<feBlend mode="normal" in="SourceGraphic" in2="effect1_backgroundBlur" result="shape"/>
</filter>
<clipPath id="clip0">
<rect width="107.521" height="71.3711" fill="white" transform="translate(12.6464 57.5234)"/>
</clipPath>
</defs>
</svg>
