<svg width="264" height="75" viewBox="0 0 264 75" fill="none" xmlns="http://www.w3.org/2000/svg">
<path d="M56.9452 14.205C56.8941 13.8325 56.5691 13.6258 56.2993 13.6033C56.0316 13.5808 50.7867 13.501 50.7867 13.501C50.7867 13.501 46.4003 9.23576 45.9669 8.80186C45.5337 8.36798 44.6875 8.49896 44.3584 8.5972C44.3543 8.59925 43.5347 8.85304 42.155 9.28078C41.9241 8.53172 41.5847 7.61072 41.1003 6.68564C39.5387 3.70163 37.2515 2.12367 34.488 2.11959C34.4839 2.11959 34.4818 2.11959 34.4778 2.11959C34.2856 2.11959 34.0955 2.138 33.9035 2.15437C33.8217 2.05613 33.7399 1.95995 33.6541 1.86579C32.4501 0.576412 30.907 -0.0519075 29.0572 0.00335179C25.4884 0.105684 21.934 2.6865 19.052 7.27098C17.0243 10.4965 15.4811 14.5489 15.0437 17.6864C10.9455 18.9573 8.07984 19.8455 8.01648 19.866C5.94797 20.5168 5.88257 20.5802 5.61276 22.5328C5.41245 24.0084 0 65.9155 0 65.9155L45.3579 73.7705L65.0168 68.8769C65.0168 68.8769 56.9963 14.5775 56.9452 14.205ZM39.8841 9.98482C38.8397 10.3082 37.6521 10.6766 36.3643 11.0757C36.3378 9.26646 36.1232 6.74909 35.2811 4.5735C37.9894 5.08721 39.322 8.15513 39.8841 9.98482ZM33.9913 11.8125C31.6142 12.5492 29.0204 13.3536 26.4184 14.16C27.1501 11.354 28.538 8.56036 30.2427 6.72862C30.8763 6.04709 31.7634 5.28778 32.814 4.85389C33.8012 6.91691 34.0159 9.83747 33.9913 11.8125ZM29.1287 2.38155C29.9667 2.36313 30.6719 2.54733 31.2749 2.94438C30.3102 3.44581 29.378 4.16622 28.5033 5.10563C26.2364 7.54114 24.4991 11.3213 23.8062 14.9684C21.6457 15.6376 19.5322 16.2947 17.5863 16.8964C18.8149 11.1555 23.6201 2.54118 29.1287 2.38155Z" fill="#95BF47"/>
<path d="M56.3013 13.6052C56.0336 13.5827 50.7887 13.5029 50.7887 13.5029C50.7887 13.5029 46.4024 9.23771 45.969 8.80383C45.8076 8.64213 45.5889 8.55822 45.3599 8.52344L45.362 73.7684L65.0189 68.8769C65.0189 68.8769 56.9983 14.5795 56.9473 14.207C56.896 13.8344 56.5691 13.6277 56.3013 13.6052Z" fill="#5E8E3E"/>
<path d="M34.4634 23.7259L32.1804 32.2788C32.1804 32.2788 29.6336 31.1184 26.6146 31.3087C22.1873 31.5891 22.1403 34.3848 22.1853 35.0868C22.4265 38.912 32.4767 39.7471 33.0409 48.7072C33.4844 55.7559 29.3065 60.5778 23.287 60.9584C16.0615 61.4148 12.084 57.1475 12.084 57.1475L13.6149 50.627C13.6149 50.627 17.619 53.6519 20.824 53.4493C22.9171 53.3163 23.6651 51.6114 23.5895 50.4059C23.2747 45.4162 15.0906 45.7109 14.5735 37.5121C14.1381 30.6129 18.6636 23.6216 28.6483 22.9912C32.4951 22.7436 34.4634 23.7259 34.4634 23.7259Z" fill="white"/>
<path d="M90.9046 41.6356C88.6442 40.4074 87.4825 39.3722 87.4825 37.9492C87.4825 36.1385 89.0962 34.9752 91.6162 34.9752C94.5497 34.9752 97.1689 36.2034 97.1689 36.2034L99.2348 29.8659C99.2348 29.8659 97.3352 28.3779 91.7439 28.3779C83.963 28.3779 78.5704 32.8397 78.5704 39.1123C78.5704 42.6688 81.0884 45.3849 84.4476 47.3234C87.1601 48.8743 88.1292 49.9746 88.1292 51.5904C88.1292 53.2713 86.773 54.6293 84.255 54.6293C80.5024 54.6293 76.9587 52.6886 76.9587 52.6886L74.7632 59.0261C74.7632 59.0261 78.0373 61.2246 83.5454 61.2246C91.5534 61.2246 97.3008 57.2804 97.3008 50.1674C97.2987 46.3552 94.3936 43.6391 90.9046 41.6356Z" fill="white"/>
<path d="M122.807 28.3151C118.867 28.3151 115.768 30.1909 113.379 33.0349L113.25 32.9698L116.672 15.0596H107.76L99.1071 60.6442H108.019L110.989 45.0623C112.151 39.1775 115.186 35.5581 118.028 35.5581C120.029 35.5581 120.805 36.916 120.805 38.8567C120.805 40.0849 120.676 41.5728 120.418 42.801L117.061 60.6463H125.973L129.459 42.2183C129.847 40.2776 130.107 37.9514 130.107 36.3984C130.103 31.354 127.456 28.3151 122.807 28.3151Z" fill="white"/>
<path d="M150.25 28.3149C139.53 28.3149 132.429 38.0142 132.429 48.8115C132.429 55.7295 136.689 61.2896 144.698 61.2896C155.223 61.2896 162.327 51.8503 162.327 40.7931C162.327 34.3926 158.58 28.3149 150.25 28.3149ZM145.859 54.4384C142.824 54.4384 141.532 51.8523 141.532 48.6185C141.532 43.5112 144.181 35.1702 149.024 35.1702C152.188 35.1702 153.219 37.8862 153.219 40.5374C153.219 46.0324 150.575 54.4384 145.859 54.4384Z" fill="white"/>
<path d="M185.122 28.3149C179.106 28.3149 175.693 33.6172 175.693 33.6172H175.565L176.082 28.8326H168.204C167.817 32.0663 167.105 36.9788 166.396 40.6652L160.196 73.317H169.109L171.561 60.1264H171.756C171.756 60.1264 173.584 61.2896 176.987 61.2896C187.447 61.2896 194.292 50.5572 194.292 39.6929C194.292 33.6822 191.643 28.3149 185.122 28.3149ZM176.598 54.5663C174.284 54.5663 172.915 53.2732 172.915 53.2732L174.401 44.9322C175.435 39.3722 178.34 35.6857 181.44 35.6857C184.153 35.6857 184.992 38.207 184.992 40.6003C184.992 46.3551 181.569 54.5663 176.598 54.5663Z" fill="white"/>
<path d="M207.013 15.5122C204.173 15.5122 201.912 17.7756 201.912 20.6845C201.912 23.3357 203.591 25.1464 206.109 25.1464H206.238C209.016 25.1464 211.404 23.2707 211.469 19.9741C211.469 17.3878 209.725 15.5122 207.013 15.5122Z" fill="white"/>
<path d="M194.551 60.6439H203.46L209.532 29.0273H200.555L194.551 60.6439Z" fill="white"/>
<path d="M232.198 28.9627H225.999L226.32 27.4748C226.837 24.4359 228.646 21.7198 231.616 21.7198C233.202 21.7198 234.457 22.1725 234.457 22.1725L236.2 15.1895C236.2 15.1895 234.651 14.4141 231.356 14.4141C228.192 14.4141 225.03 15.3193 222.639 17.3879C219.604 19.9741 218.183 23.7234 217.473 27.4748L217.217 28.9627H213.082L211.791 35.688H215.925L211.211 60.6463H220.123L224.837 35.688H230.972L232.198 28.9627Z" fill="white"/>
<path d="M253.637 29.0275C253.637 29.0275 248.065 43.0808 245.564 50.752H245.434C245.265 48.2816 243.239 29.0275 243.239 29.0275H233.875L239.237 58.0578C239.367 58.7034 239.302 59.0931 239.043 59.5457C238.008 61.5493 236.265 63.49 234.199 64.913C232.52 66.141 230.648 66.9165 229.163 67.4341L231.616 74.9998C233.425 74.6121 237.169 73.1242 240.333 70.1502C244.403 66.3359 248.147 60.4511 252.021 52.4328L262.934 29.0254H253.637V29.0275Z" fill="white"/>
</svg>
